<svg width="113" height="195" viewBox="0 0 113 195" fill="none" xmlns="http://www.w3.org/2000/svg">
<path d="M71.0627 56.5937L71.4267 56.9017C71.5611 57.0193 71.7123 57.1313 71.8579 57.2433C72.1491 57.4729 72.4179 57.7025 72.7539 57.9209C73.3587 58.3633 74.0027 58.7665 74.6467 59.1697C75.9458 59.9705 77.3072 60.6652 78.7179 61.2473C80.1225 61.8459 81.5693 62.34 83.0467 62.7257C83.4163 62.8265 83.7971 62.8937 84.1667 62.9777L84.7267 63.1009C84.8443 63.1009 84.7267 63.1009 84.7267 63.1289C84.6503 63.1468 84.5781 63.1792 84.5139 63.2241C84.4635 63.2745 84.4635 63.2745 84.4859 63.2633C84.5966 63.0992 84.6833 62.92 84.7435 62.7313C84.9422 62.0852 85.0644 61.418 85.1075 60.7433C85.1747 60.0097 85.1971 59.2369 85.1915 58.4585C85.1915 56.8961 85.0683 55.3001 84.9451 53.6985C84.8219 52.0969 84.6259 50.4897 84.4187 48.8769C84.2115 47.2641 83.9819 45.6513 83.7411 44.0609L85.8467 43.5793C86.7741 46.7756 87.5219 50.0212 88.0867 53.3009C88.3799 54.9688 88.5837 56.6513 88.6971 58.3409C88.7628 59.2129 88.7834 60.0877 88.7587 60.9617C88.7508 61.9266 88.6286 62.8872 88.3947 63.8233C88.2365 64.422 87.9791 64.9899 87.6331 65.5033C87.391 65.8534 87.0897 66.1585 86.7427 66.4049C86.3442 66.6896 85.8867 66.881 85.4043 66.9649C84.9891 67.0349 84.5651 67.0349 84.1499 66.9649L83.5059 66.8585C83.0747 66.7857 82.6379 66.7297 82.2123 66.6345C80.4951 66.2935 78.8093 65.8103 77.1723 65.1897C75.5357 64.5618 73.9531 63.8014 72.4403 62.9161C71.6843 62.4625 70.9451 61.9865 70.2283 61.4657C69.8699 61.2081 69.5171 60.9057 69.1643 60.6593C68.9907 60.5137 68.8171 60.3737 68.6435 60.2169C68.4699 60.0601 68.3075 59.9313 68.0835 59.7185L71.0627 56.5937Z" fill="#E4897B"/>
<path d="M64.9755 54.0457C71.1355 53.2113 76.0859 58.1785 76.0859 58.1785L70.4523 66.8697C70.4523 66.8697 64.4155 63.0057 63.3515 60.3737C62.2539 57.6353 61.8227 54.4545 64.9755 54.0457Z" fill="#0B89CE"/>
<path opacity="0.6" d="M64.9755 54.0457C71.1355 53.2113 76.0859 58.1785 76.0859 58.1785L70.4523 66.8697C70.4523 66.8697 64.4155 63.0057 63.3515 60.3737C62.2539 57.6353 61.8227 54.4545 64.9755 54.0457Z" fill="#FAFAFA"/>
<path d="M83.7915 44.8169L81.7475 40.7177L87.1067 40.6729C87.1067 40.6729 87.2131 43.5345 85.8579 45.1529L83.7915 44.8169Z" fill="#E4897B"/>
<path d="M82.6995 36.3105L86.6867 37.0217L87.1067 40.6729L81.7475 40.7177L82.6995 36.3105Z" fill="#E4897B"/>
<path d="M43.1915 189.342L48.2091 189.823L51.6811 178.041L46.6635 177.554L43.1915 189.342Z" fill="#E4897B"/>
<path d="M11.2883 171.915L15.0067 175.409L23.0371 166.583L19.3187 163.089L11.2883 171.915Z" fill="#E4897B"/>
<path d="M16.7259 173.734L13.9259 168.694C13.8783 168.608 13.8011 168.542 13.7085 168.508C13.6158 168.474 13.514 168.474 13.4219 168.51L9.11548 170.145C9.00885 170.191 8.913 170.258 8.83414 170.343C8.75529 170.428 8.69518 170.529 8.6577 170.639C8.62022 170.749 8.60622 170.865 8.61658 170.981C8.62695 171.096 8.66145 171.208 8.71787 171.31C9.72027 173.046 10.2971 173.835 11.5179 176.047C12.2739 177.414 13.7579 180.527 14.7939 182.42C15.8299 184.313 17.7507 183.366 17.4875 182.493C16.2891 178.573 16.5187 176.372 16.8547 174.653C16.9221 174.341 16.8764 174.016 16.7259 173.734Z" fill="#263238"/>
<path d="M48.7971 188.295H42.7155C42.6067 188.296 42.5012 188.333 42.4153 188.399C42.3293 188.466 42.2676 188.559 42.2395 188.664L40.9123 193.475C40.881 193.588 40.8766 193.708 40.8995 193.824C40.9224 193.94 40.972 194.049 41.0442 194.142C41.1164 194.236 41.2094 194.311 41.3158 194.362C41.4221 194.413 41.539 194.439 41.6571 194.438C43.8019 194.438 44.8155 194.438 47.4923 194.438H55.6627C57.9027 194.438 58.3507 192.198 57.4323 191.985C53.3107 191.078 50.9307 189.818 49.6595 188.625C49.4239 188.41 49.1159 188.292 48.7971 188.295Z" fill="#263238"/>
<path d="M51.6811 178.041L49.8891 184.117H44.7259L46.6579 177.559L51.6811 178.041Z" fill="#CE6F64"/>
<path d="M19.3131 163.094L23.0371 166.583L18.8931 171.13L15.1747 167.642L19.3131 163.094Z" fill="#CE6F64"/>
<path d="M71.0459 50.5681C71.0067 46.4969 67.3219 45.0745 67.3219 45.0745C67.3219 45.0745 71.9307 36.3497 69.5619 30.5593C67.1931 24.7689 59.3867 23.7497 56.9115 26.4545C52.5603 26.2697 51.1771 32.5193 51.1771 32.5193C51.1771 32.5193 47.5371 33.1297 46.5571 35.7785C45.5771 38.4273 48.5619 41.4121 48.5619 41.4121C48.5619 41.4121 44.4067 41.9721 42.8779 45.1697C41.3491 48.3673 42.2899 52.6121 46.8819 56.2745C53.5571 61.5945 65.8267 54.9193 65.8267 54.9193C65.8267 54.9193 71.0907 55.2497 71.0459 50.5681Z" fill="#263238"/>
<path d="M70.2563 54.6169C70.2563 54.6169 72.4963 55.5969 65.0147 85.1481L44.2947 83.3505C45.3699 74.9505 45.8347 69.7313 43.2979 52.0577C46.2541 51.7081 49.2319 51.5752 52.2075 51.6601C55.3625 51.7076 58.5101 51.979 61.6267 52.4721C64.5372 53.0424 67.4174 53.7583 70.2563 54.6169Z" fill="#0B89CE"/>
<path opacity="0.6" d="M70.2563 54.6169C70.2563 54.6169 72.4963 55.5969 65.0147 85.1481L44.2947 83.3505C45.3699 74.9505 45.8347 69.7313 43.2979 52.0577C46.2541 51.7081 49.2319 51.5752 52.2075 51.6601C55.3625 51.7076 58.5101 51.979 61.6267 52.4721C64.5372 53.0424 67.4174 53.7583 70.2563 54.6169Z" fill="#FAFAFA"/>
<path d="M64.8859 53.1721C63.8107 52.9145 62.6459 52.6681 61.5819 52.4721C58.4654 51.9771 55.3178 51.7039 52.1627 51.6545C51.0819 51.6153 50.0011 51.6153 48.9875 51.6545L49.6819 52.9761C49.8051 53.2113 52.7619 58.7273 58.3787 61.8577L59.9243 62.7201L61.3635 61.6953C64.9923 59.1025 65.5299 55.7313 64.8859 53.1721Z" fill="#FAFAFA"/>
<path d="M54.0163 41.1321C54.3467 44.2177 54.4587 49.8233 52.1683 51.6601C52.1683 51.6601 54.7891 56.6385 59.7507 59.3993C64.1411 56.2745 61.5875 52.4721 61.5875 52.4721C58.2779 51.3521 58.5803 48.8769 59.3475 46.5697L54.0163 41.1321Z" fill="#E4897B"/>
<path d="M56.1947 43.3497L59.3643 46.5697C59.1712 47.1048 59.025 47.6557 58.9275 48.2161C57.6563 47.9193 55.8083 46.5921 55.7859 45.2257C55.8113 44.5813 55.9497 43.9463 56.1947 43.3497Z" fill="#CE6F64"/>
<path d="M53.8819 34.1322C53.2715 39.1722 52.9075 41.3057 54.9627 44.3353C58.0539 48.8825 64.3931 48.5241 66.4931 43.7753C68.3859 39.4857 69.0635 31.9482 64.5331 29.0642C63.5398 28.4248 62.3997 28.0497 61.2208 27.9742C60.042 27.8988 58.8634 28.1256 57.7967 28.6332C56.73 29.1407 55.8106 29.9122 55.1255 30.8745C54.4404 31.8368 54.0123 32.9581 53.8819 34.1322Z" fill="#E4897B"/>
<path d="M57.7907 27.9218C61.6827 28.9298 57.8355 40.7681 51.6307 37.3353C51.6307 37.3353 51.9107 32.3346 53.6355 30.2122C54.6786 28.9477 56.1646 28.1286 57.7907 27.9218Z" fill="#263238"/>
<path d="M57.3763 28.5769C59.0563 31.3097 71.5163 36.4897 67.3275 30.6097C63.1387 24.7297 57.3763 28.5769 57.3763 28.5769Z" fill="#263238"/>
<path d="M52.2803 38.4945C52.2104 39.4764 52.5303 40.4462 53.1707 41.1937C54.0331 42.1737 55.1699 41.5801 55.5283 40.3929C55.8475 39.3289 55.7859 37.5369 54.6379 36.9881C54.3845 36.8764 54.1075 36.829 53.8314 36.8502C53.5553 36.8714 53.2888 36.9605 53.0554 37.1096C52.8221 37.2587 52.6292 37.4631 52.494 37.7047C52.3588 37.9464 52.2853 38.2177 52.2803 38.4945Z" fill="#E4897B"/>
<path d="M64.9923 85.1481C64.9923 85.1481 72.0091 116.195 67.3275 138.079C64.1915 152.74 52.8739 182.353 52.8739 182.353L44.0259 182.129C44.0259 182.129 52.5883 151.049 54.3635 138.83C57.3931 117.919 49.8051 83.8322 49.8051 83.8322L64.9923 85.1481Z" fill="#263238"/>
<path d="M56.9003 91.4146L52.4763 98.3922C53.8097 106.666 54.6549 115.012 55.0075 123.385C61.2291 112.247 58.2835 97.3114 56.9003 91.4146Z" fill="#263238"/>
<path d="M53.6019 182.812L42.6707 182.532L43.3035 179.178L55.2371 179.743L53.6019 182.812Z" fill="#0B89CE"/>
<path opacity="0.6" d="M53.6019 182.812L42.6707 182.532L43.3035 179.178L55.2371 179.743L53.6019 182.812Z" fill="#FAFAFA"/>
<path d="M60.4563 84.8121C60.4563 84.8121 56.3403 117.74 47.4139 135.716C40.2067 150.215 20.9763 170.935 20.9763 170.935L16.0595 165.867C16.0595 165.867 29.0515 143.405 34.4107 133.756C47.5483 110.107 36.8075 92.0641 44.2555 83.3561L60.4563 84.8121Z" fill="#263238"/>
<path d="M21.4691 171.584L15.1187 165.396L17.2299 162.529L24.1459 169.68L21.4691 171.584Z" fill="#0B89CE"/>
<path opacity="0.6" d="M21.4691 171.584L15.1187 165.396L17.2299 162.529L24.1459 169.68L21.4691 171.584Z" fill="#FAFAFA"/>
<path d="M44.0427 82.1073L42.9507 83.8825C42.8611 84.0225 43.0235 84.1849 43.2587 84.2017L65.0147 86.0833C65.2051 86.0833 65.3675 86.0217 65.3899 85.9041L65.7371 84.0673C65.7371 83.9385 65.6083 83.8153 65.4011 83.7985L44.3955 81.9785C44.3305 81.9676 44.2639 81.9738 44.2021 81.9964C44.1402 82.0189 44.0853 82.0572 44.0427 82.1073Z" fill="#0B89CE"/>
<path opacity="0.3" d="M44.0427 82.1073L42.9507 83.8825C42.8611 84.0225 43.0235 84.1849 43.2587 84.2017L65.0147 86.0833C65.2051 86.0833 65.3675 86.0217 65.3899 85.9041L65.7371 84.0673C65.7371 83.9385 65.6083 83.8153 65.4011 83.7985L44.3955 81.9785C44.3305 81.9676 44.2639 81.9738 44.2021 81.9964C44.1402 82.0189 44.0853 82.0572 44.0427 82.1073Z" fill="black"/>
<path d="M46.6635 84.6945L46.1035 84.6441C45.9915 84.6441 45.9131 84.5713 45.9243 84.4985L46.4003 82.1129C46.4003 82.0401 46.5179 81.9897 46.6299 82.0009L47.1899 82.0513C47.3019 82.0513 47.3803 82.1241 47.3691 82.1969L46.8987 84.5825C46.8763 84.6609 46.7755 84.6945 46.6635 84.6945Z" fill="#263238"/>
<path d="M63.4187 86.1505L62.8587 86.1001C62.7467 86.1001 62.6683 86.0273 62.6795 85.9545L63.1555 83.5633C63.1555 83.4961 63.2731 83.4457 63.3851 83.4569L63.9451 83.5073C64.0571 83.5073 64.1355 83.5801 64.1243 83.6473L63.6539 86.0385C63.6315 86.1113 63.5363 86.1561 63.4187 86.1505Z" fill="#263238"/>
<path d="M55.0411 85.4225L54.4811 85.3777C54.3691 85.3777 54.2907 85.2993 54.3019 85.2321L54.7779 82.8409C54.7779 82.7737 54.8955 82.7233 55.0075 82.7345L55.5675 82.7793C55.6795 82.7793 55.7579 82.8577 55.7467 82.9249L55.2763 85.3161C55.2539 85.3833 55.1363 85.4337 55.0411 85.4225Z" fill="#263238"/>
<path d="M61.2011 36.9153C61.1283 37.3185 61.2851 37.6881 61.5483 37.7385C61.8115 37.7889 62.1083 37.4977 62.1643 37.0889C62.2203 36.6801 62.0859 36.3105 61.8171 36.2657C61.5483 36.2209 61.2963 36.5345 61.2011 36.9153Z" fill="#263238"/>
<path d="M65.7763 37.7553C65.7035 38.1585 65.8603 38.5281 66.1235 38.5785C66.3867 38.6289 66.6835 38.3377 66.7395 37.9289C66.7955 37.5201 66.6611 37.1505 66.3923 37.1057C66.1235 37.0609 65.8771 37.3465 65.7763 37.7553Z" fill="#263238"/>
<path d="M66.2971 37.0945L67.3219 36.9937C67.3219 36.9937 66.6835 37.6545 66.2971 37.0945Z" fill="#263238"/>
<path d="M64.4547 38.2145C64.6504 39.2083 64.9801 40.171 65.4347 41.0761C65.1997 41.1857 64.9436 41.2425 64.6843 41.2425C64.425 41.2425 64.1688 41.1857 63.9339 41.0761L64.4547 38.2145Z" fill="#DE5753"/>
<path d="M62.2315 42.4201C61.6851 42.3355 61.1669 42.1209 60.7206 41.7945C60.2743 41.468 59.9129 41.0392 59.6667 40.5441C59.6574 40.5196 59.6581 40.4924 59.6685 40.4684C59.679 40.4443 59.6984 40.4253 59.7227 40.4153C59.7344 40.4098 59.7471 40.4067 59.76 40.4063C59.773 40.4059 59.7859 40.4081 59.7979 40.4128C59.81 40.4175 59.8209 40.4246 59.8301 40.4337C59.8394 40.4428 59.8466 40.4537 59.8515 40.4657C60.0874 40.9272 60.429 41.3265 60.8484 41.6311C61.2678 41.9357 61.7532 42.1369 62.2651 42.2185C62.2918 42.2185 62.3174 42.2291 62.3363 42.2481C62.3552 42.267 62.3659 42.2926 62.3659 42.3193C62.3659 42.3461 62.3552 42.3717 62.3363 42.3906C62.3174 42.4095 62.2918 42.4201 62.2651 42.4201H62.2315Z" fill="#263238"/>
<path d="M60.1091 33.7345C60.0663 33.7353 60.0243 33.7225 59.9893 33.6978C59.9543 33.6732 59.928 33.6381 59.9143 33.5976C59.9006 33.557 59.9001 33.5132 59.913 33.4723C59.9259 33.4315 59.9514 33.3958 59.9859 33.3705C60.2809 33.1329 60.6287 32.9697 61.0001 32.8946C61.3714 32.8196 61.7553 32.8349 62.1195 32.9393C62.1445 32.9481 62.1675 32.9617 62.1873 32.9794C62.207 32.9971 62.2231 33.0186 62.2345 33.0425C62.246 33.0665 62.2526 33.0924 62.254 33.1189C62.2554 33.1454 62.2515 33.1719 62.2427 33.1969C62.2339 33.2219 62.2202 33.245 62.2025 33.2647C62.1848 33.2845 62.1634 33.3005 62.1394 33.312C62.1155 33.3234 62.0896 33.33 62.0631 33.3314C62.0366 33.3328 62.0101 33.329 61.9851 33.3201C61.6846 33.2375 61.3687 33.228 61.0638 33.2922C60.7589 33.3565 60.4738 33.4928 60.2323 33.6897C60.1966 33.7166 60.1537 33.7322 60.1091 33.7345Z" fill="#263238"/>
<path d="M68.3971 36.2097C68.3672 36.2096 68.3378 36.203 68.3107 36.1904C68.2837 36.1779 68.2596 36.1596 68.2403 36.1369C68.0491 35.8902 67.8023 35.6922 67.5201 35.5588C67.2379 35.4255 66.9283 35.3607 66.6163 35.3697C66.563 35.3745 66.51 35.3585 66.4682 35.3251C66.4265 35.2917 66.3993 35.2435 66.3923 35.1905C66.3892 35.1643 66.3914 35.1378 66.3988 35.1125C66.4062 35.0871 66.4187 35.0636 66.4354 35.0432C66.4521 35.0228 66.4728 35.006 66.4962 34.9938C66.5196 34.9816 66.5452 34.9742 66.5715 34.9721C66.9505 34.9526 67.3287 35.0249 67.6738 35.1828C68.019 35.3408 68.3209 35.5797 68.5539 35.8793C68.5905 35.9178 68.6109 35.969 68.6109 36.0221C68.6109 36.0753 68.5905 36.1264 68.5539 36.1649C68.5091 36.199 68.4531 36.215 68.3971 36.2097Z" fill="#263238"/>
<path d="M44.8267 59.4945C43.9844 61.1656 43.0496 62.7883 42.0267 64.3553C41.0187 65.9009 39.9547 67.4129 38.8067 68.8689C37.6467 70.3301 36.4033 71.7231 35.0827 73.0409C34.3995 73.6849 33.7331 74.3401 32.9995 74.9449L32.4395 75.4041L32.3051 75.5161L32.1259 75.6561C32.0077 75.7525 31.8843 75.8422 31.7563 75.9249C31.2471 76.2737 30.6933 76.5525 30.1099 76.7537C29.011 77.1121 27.85 77.2398 26.6995 77.1289C25.6689 77.0258 24.6539 76.8022 23.6755 76.4625C21.8629 75.8301 20.1346 74.9782 18.5291 73.9257C15.44 71.9219 12.5947 69.5652 10.0507 66.9033L11.5403 65.3409C12.8787 66.4161 14.2899 67.4857 15.7347 68.4545C17.1498 69.4458 18.6234 70.3509 20.1475 71.1649C21.5985 71.962 23.1303 72.6021 24.7171 73.0745C26.2291 73.4945 27.7467 73.5673 28.7939 73.1305C29.3856 72.8732 29.9147 72.4912 30.3451 72.0105C30.9667 71.4505 31.5435 70.8289 32.1315 70.2241C33.2795 68.9753 34.3435 67.6369 35.3907 66.3041C36.4379 64.9713 37.3843 63.5041 38.3027 62.0481C38.7675 61.3201 39.2099 60.5809 39.6467 59.8417C40.0835 59.1025 40.5035 58.3241 40.8675 57.6297L44.8267 59.4945Z" fill="#E4897B"/>
<path d="M12.9571 66.0073L10.9635 61.8857L7.64827 66.0969C7.64827 66.0969 9.84347 67.9281 11.9771 67.8609L12.9571 66.0073Z" fill="#E4897B"/>
<path d="M8.78507 60.6817L6.90907 64.2713L7.64827 66.0969L10.9635 61.8857L8.78507 60.6817Z" fill="#E4897B"/>
<path d="M43.2531 52.0577C40.7107 52.5057 37.1435 59.8026 37.1435 59.8026L44.1267 66.1138C44.1267 66.1138 48.6515 60.0378 48.3827 56.7225C48.1531 53.8945 46.4899 51.4865 43.2531 52.0577Z" fill="#0B89CE"/>
<path opacity="0.6" d="M43.2531 52.0577C40.7107 52.5057 37.1435 59.8026 37.1435 59.8026L44.1267 66.1138C44.1267 66.1138 48.6515 60.0378 48.3827 56.7225C48.1531 53.8945 46.4899 51.4865 43.2531 52.0577Z" fill="#FAFAFA"/>
<path d="M17.7059 176.439C17.6391 176.44 17.5727 176.428 17.5099 176.406C16.8995 176.204 16.5019 175.078 16.3171 174.423C16.3116 174.404 16.3118 174.384 16.3178 174.365C16.3238 174.346 16.3352 174.329 16.3507 174.317C16.3677 174.307 16.387 174.302 16.4067 174.302C16.4263 174.302 16.4456 174.307 16.4627 174.317C16.6475 174.412 18.2715 175.286 18.3219 175.924C18.3295 175.994 18.3172 176.065 18.2865 176.128C18.2558 176.192 18.2079 176.245 18.1483 176.282C18.0222 176.382 17.8666 176.437 17.7059 176.439ZM16.5859 174.602C16.8659 175.504 17.2299 176.098 17.5771 176.215C17.6563 176.239 17.7402 176.242 17.8208 176.223C17.9013 176.204 17.9756 176.165 18.0363 176.109C18.0669 176.091 18.0916 176.064 18.1075 176.032C18.1234 176.001 18.1297 175.965 18.1259 175.93C18.0923 175.538 17.1403 174.916 16.5803 174.602H16.5859Z" fill="#0B89CE"/>
<path d="M17.9579 174.855C17.4043 174.852 16.8584 174.724 16.3619 174.479C16.3462 174.472 16.3331 174.46 16.3242 174.445C16.3152 174.43 16.3108 174.413 16.3115 174.395C16.3116 174.377 16.3169 174.358 16.3268 174.343C16.3367 174.327 16.3508 174.314 16.3675 174.306C16.4179 174.306 17.7059 173.572 18.4003 173.819C18.4857 173.846 18.5637 173.893 18.6287 173.955C18.6936 174.017 18.7438 174.093 18.7755 174.177C18.8197 174.258 18.835 174.351 18.8187 174.442C18.8024 174.533 18.7555 174.615 18.6859 174.675C18.4693 174.813 18.2136 174.876 17.9579 174.855ZM16.6363 174.395C17.1963 174.631 18.2547 174.776 18.5571 174.519C18.6075 174.479 18.6523 174.407 18.5907 174.25C18.5684 174.193 18.5337 174.142 18.4892 174.1C18.4446 174.058 18.3913 174.027 18.3331 174.009C17.8571 173.841 17.0003 174.216 16.6363 174.395Z" fill="#0B89CE"/>
<path d="M51.4963 189.28C50.9304 189.267 50.3675 189.196 49.8163 189.067C49.7954 189.063 49.7765 189.051 49.7624 189.035C49.7483 189.019 49.7397 188.999 49.7379 188.978C49.7349 188.957 49.7388 188.936 49.7489 188.918C49.759 188.9 49.7748 188.885 49.7939 188.877C50.0459 188.759 52.2467 187.757 52.8067 188.115C52.8566 188.15 52.8965 188.197 52.9221 188.252C52.9477 188.307 52.9581 188.368 52.9523 188.429C52.9456 188.539 52.9151 188.646 52.8629 188.742C52.8106 188.839 52.738 188.923 52.6499 188.989C52.3034 189.2 51.9013 189.301 51.4963 189.28ZM50.1859 188.933C50.8411 189.056 52.0507 189.213 52.5491 188.838C52.615 188.788 52.6692 188.725 52.7079 188.653C52.7466 188.58 52.7689 188.5 52.7731 188.418C52.7764 188.392 52.7729 188.367 52.7631 188.343C52.7533 188.319 52.7374 188.299 52.7171 188.283C52.4035 188.071 51.0987 188.53 50.1859 188.933Z" fill="#0B89CE"/>
<path d="M49.8611 189.067C49.8395 189.076 49.8154 189.076 49.7939 189.067C49.7799 189.055 49.7695 189.039 49.7636 189.021C49.7577 189.004 49.7565 188.985 49.7603 188.967C49.7603 188.877 50.2867 186.698 51.4795 186.838C51.7819 186.872 51.8603 187.023 51.8771 187.141C51.9555 187.701 50.5611 188.821 49.9003 189.084L49.8611 189.067ZM51.3731 187.012C50.6059 187.012 50.1635 188.278 50.0123 188.787C50.7347 188.407 51.7259 187.499 51.6923 187.147C51.6923 187.119 51.6923 187.04 51.4739 187.018L51.3731 187.012Z" fill="#0B89CE"/>
<path d="M61.6995 36.2657L62.7243 36.1593C62.7243 36.1593 62.0859 36.8313 61.6995 36.2657Z" fill="#263238"/>
<path opacity="0.6" d="M19.5707 4.35132L3.15707 110.455L95.5123 124.723L111.926 18.6145L19.5707 4.35132ZM57.5163 64.7025C53.2772 64.0464 49.3279 62.1478 46.1682 59.2467C43.0084 56.3457 40.7801 52.5726 39.7652 48.4048C38.7502 44.2371 38.9943 39.8619 40.4664 35.8329C41.9386 31.8039 44.5727 28.302 48.0355 25.7704C51.4983 23.2387 55.6341 21.791 59.9199 21.6105C64.2056 21.4299 68.4487 22.5245 72.1122 24.7559C75.7756 26.9873 78.695 30.2552 80.5008 34.1461C82.3066 38.0371 82.9178 42.3762 82.2571 46.6145C81.3719 52.2925 78.2689 57.3869 73.6299 60.7785C68.9909 64.1701 63.1953 65.5814 57.5163 64.7025Z" fill="#0B89CE"/>
<g style="mix-blend-mode:multiply" opacity="0.3">
<path d="M92.7235 120.697H92.5835L0.0882721 106.367V106.227L16.5467 0.00012207H16.6811L109.176 14.3305V14.4705L92.7235 120.697ZM0.407476 106.137L92.4883 120.378L108.857 14.5377L16.7763 0.319322L0.407476 106.137Z" fill="#0B89CE"/>
</g>
<path d="M60.8427 65.8001C59.6858 65.7988 58.5307 65.709 57.3875 65.5313C51.6425 64.635 46.4679 61.5485 42.9494 56.9194C39.431 52.2903 37.8421 46.4783 38.5163 40.703C39.1904 34.9278 42.0751 29.638 46.5652 25.9437C51.0552 22.2494 56.8016 20.4377 62.5985 20.8887C68.3955 21.3396 73.7925 24.0183 77.6572 28.3625C81.5219 32.7068 83.5538 38.379 83.3266 44.1891C83.0995 49.9992 80.6309 55.4954 76.4389 59.5247C72.2468 63.554 66.6572 65.8031 60.8427 65.8001ZM57.6451 63.8737C61.7177 64.5029 65.8854 63.9104 69.6213 62.1712C73.3572 60.4319 76.4935 57.6239 78.6337 54.1023C80.7739 50.5807 81.8219 46.5036 81.6451 42.3865C81.4683 38.2694 80.0747 34.2971 77.6405 30.9719C75.2063 27.6467 71.8409 25.118 67.9696 23.7053C64.0984 22.2927 59.8952 22.0597 55.8915 23.0357C51.8878 24.0117 48.2634 26.1529 45.4766 29.1886C42.6897 32.2243 40.8655 36.0182 40.2347 40.0905C39.3961 45.5522 40.7582 51.1235 44.0221 55.5821C47.2861 60.0408 52.1853 63.0227 57.6451 63.8737Z" fill="#FAFAFA"/>
<path d="M39.6765 71.267L19.3327 68.1212L18.6258 72.6925L38.9697 75.8382L39.6765 71.267Z" fill="#0B89CE"/>
<path opacity="0.6" d="M39.6765 71.267L19.3327 68.1212L18.6258 72.6925L38.9697 75.8382L39.6765 71.267Z" fill="#FAFAFA"/>
<path d="M56.1199 73.8104L42.3563 71.6821L41.6494 76.2534L55.413 78.3817L56.1199 73.8104Z" fill="#0B89CE"/>
<path opacity="0.6" d="M56.1199 73.8104L42.3563 71.6821L41.6494 76.2534L55.413 78.3817L56.1199 73.8104Z" fill="#FAFAFA"/>
<path d="M91.4634 88.7598L17.8969 77.3842L17.19 81.9555L90.7565 93.331L91.4634 88.7598Z" fill="#FAFAFA"/>
<path d="M53.5757 92.601L16.9298 87.0486L16.236 91.628L52.8818 97.1804L53.5757 92.601Z" fill="#FAFAFA"/>
<path d="M83.7097 97.513L59.2374 93.7289L58.5305 98.3002L83.0029 102.084L83.7097 97.513Z" fill="#FAFAFA"/>
<path d="M73.706 105.922L14.8937 96.8275L14.1869 101.399L72.9991 110.493L73.706 105.922Z" fill="#FAFAFA"/>
<path d="M112.911 124.723H112.351C112.354 123.334 112.182 121.949 111.842 120.602L112.402 120.467C112.748 121.859 112.919 123.289 112.911 124.723ZM110.716 117.488C109.484 114.909 107.622 112.683 105.301 111.015L105.626 110.561C108.022 112.282 109.948 114.577 111.226 117.236L110.716 117.488Z" fill="#0B89CE"/>
<path opacity="0.6" d="M112.911 124.723H112.351C112.354 123.334 112.182 121.949 111.842 120.602L112.402 120.467C112.748 121.859 112.919 123.289 112.911 124.723ZM110.716 117.488C109.484 114.909 107.622 112.683 105.301 111.015L105.626 110.561C108.022 112.282 109.948 114.577 111.226 117.236L110.716 117.488Z" fill="#FAFAFA"/>
<path d="M95.5123 109.284C92.4587 109.284 89.4737 110.19 86.9347 111.886C84.3958 113.583 82.4169 115.994 81.2483 118.815C80.0798 121.636 79.774 124.74 80.3697 127.735C80.9655 130.73 82.4359 133.481 84.5951 135.64C86.7543 137.8 89.5053 139.27 92.5003 139.866C95.4952 140.462 98.5995 140.156 101.421 138.987C104.242 137.819 106.653 135.84 108.35 133.301C110.046 130.762 110.951 127.777 110.951 124.723C110.951 120.629 109.325 116.702 106.429 113.806C103.534 110.911 99.607 109.284 95.5123 109.284ZM95.5123 138.163C92.8541 138.163 90.2556 137.375 88.0454 135.898C85.8352 134.421 84.1126 132.322 83.0953 129.867C82.0781 127.411 81.8119 124.708 82.3305 122.101C82.8491 119.494 84.1291 117.099 86.0088 115.22C87.8884 113.34 90.2832 112.06 92.8903 111.542C95.4974 111.023 98.1997 111.289 100.656 112.306C103.111 113.324 105.21 115.046 106.687 117.256C108.164 119.467 108.952 122.065 108.952 124.723C108.952 128.288 107.536 131.706 105.016 134.227C102.495 136.747 99.0768 138.163 95.5123 138.163Z" fill="#0B89CE"/>
<path opacity="0.6" d="M95.5123 109.284C92.4587 109.284 89.4737 110.19 86.9347 111.886C84.3958 113.583 82.4169 115.994 81.2483 118.815C80.0798 121.636 79.774 124.74 80.3697 127.735C80.9655 130.73 82.4359 133.481 84.5951 135.64C86.7543 137.8 89.5053 139.27 92.5003 139.866C95.4952 140.462 98.5995 140.156 101.421 138.987C104.242 137.819 106.653 135.84 108.35 133.301C110.046 130.762 110.951 127.777 110.951 124.723C110.951 120.629 109.325 116.702 106.429 113.806C103.534 110.911 99.607 109.284 95.5123 109.284ZM95.5123 138.163C92.8541 138.163 90.2556 137.375 88.0454 135.898C85.8352 134.421 84.1126 132.322 83.0953 129.867C82.0781 127.411 81.8119 124.708 82.3305 122.101C82.8491 119.494 84.1291 117.099 86.0088 115.22C87.8884 113.34 90.2832 112.06 92.8903 111.542C95.4974 111.023 98.1997 111.289 100.656 112.306C103.111 113.324 105.21 115.046 106.687 117.256C108.164 119.467 108.952 122.065 108.952 124.723C108.952 128.288 107.536 131.706 105.016 134.227C102.495 136.747 99.0768 138.163 95.5123 138.163Z" fill="#FAFAFA"/>
<path d="M95.5123 138.158C102.932 138.158 108.947 132.143 108.947 124.723C108.947 117.304 102.932 111.289 95.5123 111.289C88.0927 111.289 82.0779 117.304 82.0779 124.723C82.0779 132.143 88.0927 138.158 95.5123 138.158Z" fill="#0B89CE"/>
<path opacity="0.2" d="M95.5123 138.158C102.932 138.158 108.947 132.143 108.947 124.723C108.947 117.304 102.932 111.289 95.5123 111.289C88.0927 111.289 82.0779 117.304 82.0779 124.723C82.0779 132.143 88.0927 138.158 95.5123 138.158Z" fill="black"/>
<path d="M93.4235 133.224L85.5387 125.339L87.5211 123.363L93.4235 129.265L103.509 119.179L105.486 121.162L93.4235 133.224Z" fill="#FAFAFA"/>
</svg>
